<svg width="200" height="200" viewBox="0 0 200 200" fill="none" xmlns="http://www.w3.org/2000/svg">
<g clip-path="url(#clip0_2663_1529)">
<path d="M46.4684 61.4217C46.4684 61.4217 32.8634 48.3462 22.4559 65.5969C12.0485 82.868 18.5659 90.6889 25.4091 95.414C32.2524 100.139 24.2278 114.498 24.2278 114.498L39.7474 139.467C39.7474 139.467 44.6965 144.193 51.2342 144.905C57.772 145.618 67.9147 149.834 67.9147 149.834H89.6665L107.243 149.549L121.031 142.685L145.614 136.107L156.979 127.431L183.496 92.8681L180.584 76.1062L173.68 64.4156L151.337 56.0041L138.343 49.1609L122.09 50.3218L105.553 49.1609L85.1246 55.7801L75.7559 56.7577L67.7314 62.2568L64.045 61.5032L61.5806 56.7577L52.5377 56.2893L46.2036 59.3036L46.4684 61.4625V61.4217Z" fill="#BA0018"/>
<path d="M178.466 66.4319C179.892 66.4319 181.053 65.271 181.053 63.8453C181.053 62.4197 179.892 61.2588 178.466 61.2588C177.04 61.2588 175.88 62.4197 175.88 63.8453C175.88 65.271 177.04 66.4319 178.466 66.4319ZM178.466 61.7272C179.627 61.7272 180.584 62.6641 180.584 63.8453C180.584 65.0266 179.647 65.9635 178.466 65.9635C177.285 65.9635 176.348 65.0266 176.348 63.8453C176.348 62.6641 177.285 61.7272 178.466 61.7272ZM177.937 63.9879H178.385L179.199 65.2303H179.749L178.914 63.9675C179.79 63.9675 179.729 63.1732 179.729 63.1732C179.729 62.5011 179.057 62.4604 179.057 62.4604H177.509V65.2507H177.937V64.0083V63.9879ZM177.916 62.8474H178.873C178.873 62.8474 179.24 62.8474 179.24 63.1732C179.24 63.1732 179.362 63.5602 178.894 63.5602H177.916V62.8474ZM66.1227 56.4114H66.5708L67.3854 57.6538H67.9354L67.1003 56.3911C67.9761 56.3911 67.915 55.5968 67.915 55.5968C67.915 54.9247 67.2429 54.8839 67.2429 54.8839H65.695V57.6742H66.1227V56.4318V56.4114ZM66.1227 55.2709H67.0799C67.0799 55.2709 67.4465 55.2709 67.4465 55.5968C67.4465 55.5968 67.5687 55.9837 67.1003 55.9837H66.1227V55.2709ZM66.6522 58.8555C68.0779 58.8555 69.2388 57.6946 69.2388 56.2689C69.2388 54.8432 68.0779 53.6823 66.6522 53.6823C65.2266 53.6823 64.0657 54.8432 64.0657 56.2689C64.0657 57.6946 65.2266 58.8555 66.6522 58.8555ZM66.6522 54.1507C67.8132 54.1507 68.7704 55.0876 68.7704 56.2689C68.7704 57.4502 67.8335 58.387 66.6522 58.387C65.471 58.387 64.5341 57.4502 64.5341 56.2689C64.5341 55.0876 65.471 54.1507 66.6522 54.1507ZM183.049 80.1388C179.81 67.104 168.262 57.0428 150.523 51.7882C133.191 46.6557 111.887 46.7168 90.5629 51.9715C81.2349 54.2729 72.2735 57.4909 64.0453 61.4624C63.8009 59.8331 63.4343 58.1223 62.9251 56.3707C62.7825 55.8819 62.3752 55.5153 61.8864 55.4135C61.3976 55.3116 60.8681 55.4949 60.5422 55.8819C59.9719 56.5744 59.2998 56.5336 57.1409 55.9837H57.0595C54.2692 55.2709 50.1551 54.2322 46.1836 59.2424C42.3139 56.5744 37.4666 55.3727 33.4543 56.167C28.831 57.0632 24.5133 59.8534 21.2953 63.9879C17.7311 68.6519 15.837 74.2935 15.9999 79.9148C15.9999 80.3221 16.0203 80.7091 16.061 81.1164C16.4887 86.4118 18.8513 91.198 22.7414 94.7622C23.3931 95.3732 24.1263 95.9435 24.941 96.4323C21.1324 104.355 20.0733 112.379 21.9267 119.834C25.165 132.869 36.713 142.93 54.4525 148.184C63.0269 150.71 72.5383 151.993 82.5587 151.993C92.5792 151.993 103.618 150.669 114.412 148.001C128.588 144.518 141.969 138.877 153.109 131.687C164.006 124.661 172.56 116.331 177.835 107.573C183.395 98.3467 185.187 88.8762 183.028 80.1592L183.049 80.1388ZM25.4094 95.4343C21.0713 92.1349 18.3625 87.4098 17.7922 81.87C17.7515 81.5034 17.7311 81.1368 17.7108 80.7498C17.4663 75.3526 19.2383 69.935 22.4562 65.5969C25.552 61.4421 29.605 58.9166 33.658 58.0408C37.6499 57.1854 42.762 58.5703 46.4687 61.4217L46.5298 61.4624L46.5705 61.4013C50.1755 55.8208 53.8211 56.7169 56.7947 57.3891C58.7499 57.8371 60.42 58.2241 61.5809 56.7373C62.2937 59.0184 62.7622 61.1976 62.9862 63.2343C63.1084 64.273 63.1491 65.2914 63.1491 66.269C63.1084 68.8759 62.6196 71.2589 61.6624 73.377C60.644 75.597 59.1369 77.4911 57.1409 78.9983C55.3283 80.3832 53.149 81.4015 50.8272 81.9311C43.4952 83.6012 37.3647 85.6378 33.0266 88.1226C28.7903 90.5666 26.7944 93.1328 25.4094 95.4343ZM71.9476 149.325L51.4586 121.545L51.2549 144.885C46.9779 143.378 43.1286 141.545 39.768 139.447L39.8699 86.8191C40.0124 86.758 40.155 86.7173 40.3179 86.6562C43.4137 85.4953 47.0797 84.4362 51.2753 83.4586V101.952L67.7317 62.2567C73.19 59.772 79.0149 57.5724 85.1453 55.7597L59.0147 111.463L86.6728 149.753C81.6422 149.936 76.7135 149.793 71.968 149.345L71.9476 149.325ZM79.5444 96.6359C77.0801 99.0596 73.7195 98.9781 72.0494 96.4526C70.3794 93.8864 70.9293 89.813 73.4548 87.3487C76.0006 84.8843 79.2797 85.0268 80.9701 87.5727C82.6198 90.0982 82.0088 94.1919 79.5444 96.6156V96.6359ZM81.4997 125.068L71.6217 127.41V103.683L81.4997 97.6746V125.048V125.068ZM101.541 117.838C100.033 121.321 95.6139 123.846 91.3368 122.441C89.2798 121.769 85.9396 119.712 85.96 114.498L86.0415 99.6299L83.0679 100.363L91.0721 83.2549L96.2656 81.9718L96.1638 89.9963L102.376 88.4485L102.315 95.5769L96.0619 97.1247L95.9601 109.243C95.9601 111.891 96.0619 113.174 96.7137 113.744C98.6485 115.475 101.5 112.054 102.437 111.28C102.579 112.705 102.559 115.414 101.541 117.797V117.838ZM138.853 137.166L115.96 106.127L115.797 145.476C115.186 145.639 114.555 145.801 113.944 145.944C110.706 146.738 107.467 147.41 104.29 147.96L104.372 51.4623C108.221 50.9124 112.03 50.5254 115.777 50.3218V86.5544L130.747 50.4236C135.39 50.7698 139.83 51.4012 144.026 52.3177L123.516 96.0249L149.219 131.626C145.961 133.581 142.498 135.435 138.853 137.166ZM157.936 103.866C156.287 108.571 152.295 110.241 148.242 107.756C144.494 111.626 140.38 112.278 137.06 111.219C134.026 110.241 131.561 104.946 132.559 100.546C133.17 97.8579 134.168 95.6991 136.755 93.2754C139.341 90.8517 144.168 88.2855 145.309 86.1266C146.205 84.4566 145.574 82.5421 143.761 82.9698C140.787 83.6826 135.818 89.3039 133.537 91.8905L133.598 83.1124C135.166 80.5054 138.527 76.1673 142.6 74.7009C148.425 72.5827 155.126 75.8007 155.309 82.2977V98.1634C155.309 99.8132 157.733 99.304 158.873 97.8376C158.914 99.1614 158.588 101.992 157.916 103.887L157.936 103.866ZM175.472 99.8539C173.965 103.337 169.545 105.862 165.268 104.457C163.211 103.785 159.871 101.728 159.892 96.5137L159.973 81.6459L156.999 82.3792L165.004 65.271L170.197 63.9879L170.095 72.0124L176.307 70.4646L176.246 77.5929L169.994 79.1408L169.892 91.2591C169.892 93.9068 169.994 95.1899 170.645 95.7602C172.58 97.4913 175.431 94.0697 176.368 93.2958C176.511 94.7215 176.491 97.4302 175.472 99.8132V99.8539ZM145.838 94.9048L145.635 101.361C145.574 103.092 143.924 103.703 143.048 103.5C142.274 103.316 141.073 102.563 141.398 100.485C141.704 98.5504 144.678 95.7602 145.838 94.8844V94.9048ZM24.3503 88.6114L24.2281 84.4769C40.2365 73.5196 50.6643 81.0349 58.7295 72.6234C54.0044 82.6643 37.548 74.5176 24.33 88.6114H24.3503ZM44.595 73.2344C44.595 72.8271 44.2284 72.766 43.8618 72.7456C43.4952 72.7253 42.762 72.6642 42.3342 72.6438C41.3566 72.5623 40.542 72.0328 40.5012 70.7904C40.4605 69.1407 41.5807 67.878 43.2711 67.5114C44.8801 67.1651 46.0206 67.9798 46.041 69.1814C46.041 69.4055 45.8984 69.5888 45.7559 69.6091L44.9616 69.7925C44.7579 69.8332 44.6153 69.8332 44.5339 69.6295C44.3709 69.1814 43.9025 69.0185 43.3119 69.1611C42.7416 69.2833 42.2935 69.6091 42.3139 70.2202C42.3139 70.6275 42.6805 70.6886 43.0471 70.7293C43.2711 70.7293 44.2284 70.8312 44.6357 70.8515C45.6337 70.933 46.265 71.6051 46.3058 72.7456C46.3465 74.762 44.7172 75.8414 43.5155 76.1673C41.7843 76.6561 40.4809 75.7803 40.4401 74.5787V74.4361C40.4401 74.1917 40.5827 73.988 40.7456 73.9473L41.2548 73.7843C41.5196 73.7232 42.0491 73.6418 42.1509 73.9269C42.3342 74.3954 42.9045 74.5787 43.4748 74.4157C44.0654 74.2528 44.6153 73.8862 44.595 73.2344ZM24.0245 80.6276L23.6986 69.1814C23.6986 68.7334 24.0041 68.3057 24.4318 68.2242L25.6945 67.9391C26.2445 67.8372 26.6518 68.0816 26.8555 68.4075C27.1202 68.8352 30.6233 75.4341 30.6233 75.4341L30.3789 67.9798C30.3789 67.5521 30.6437 67.1244 31.0307 67.0633L45.3078 64.3341C45.5115 64.2934 45.6948 64.4767 45.6948 64.7415V65.4543C45.7151 65.7191 45.5522 65.9839 45.3485 66.0246L32.4156 68.6315L32.66 78.1632C32.66 78.5909 32.3952 79.0186 32.0083 79.1205L30.8677 79.4667C30.3586 79.6093 30.0327 79.4056 29.829 79.0594C29.7068 78.8761 25.9797 72.1143 25.9797 72.1143L26.2445 79.9962C26.2445 80.4443 25.939 80.8924 25.552 80.9942L24.7984 81.259C24.3911 81.3812 24.0448 81.096 24.0245 80.648V80.6276ZM40.0735 72.3994C40.0124 70.1794 38.9534 68.1835 36.6112 68.713C34.3708 69.2222 33.1488 71.8088 33.2099 74.1917C33.271 76.7375 34.6967 78.5706 36.8556 77.9392C38.2812 77.5115 39.6662 76.1469 39.8902 74.4768C39.9106 74.2528 39.8088 73.988 39.5644 74.0695L38.546 74.3546C38.3627 74.3954 38.2201 74.5583 38.1387 74.762C37.8739 75.3933 37.4462 75.821 36.7945 76.0043C35.878 76.2691 35.2262 75.4952 35.1448 74.4972L39.5236 73.3159C39.9106 73.2141 40.0735 72.8882 40.0735 72.3994ZM35.1244 72.7049C35.1651 71.6866 35.8372 70.7497 36.6723 70.546C37.4869 70.3424 38.1794 70.9126 38.2812 71.8902L35.1448 72.7049H35.1244ZM50.481 73.4788L50.1755 63.9064C50.1755 63.5602 50.3791 63.2547 50.6235 63.1936L51.2957 63.051C51.5401 63.0103 51.8456 63.2343 51.8659 63.5806L52.1511 73.0919C52.1511 73.4381 51.8659 73.7232 51.6215 73.7843L50.9494 73.9677C50.6846 74.0288 50.481 73.8251 50.4606 73.4788H50.481ZM55.8986 72.8678C57.2428 72.542 58.5259 71.2996 58.7295 69.8536C58.7499 69.6702 58.6481 69.4462 58.4444 69.4869L57.5075 69.711C57.3242 69.7517 57.202 69.8739 57.1206 70.0572C56.8558 70.6071 56.4688 71.0552 55.8782 71.1978C55.0228 71.4014 54.4118 70.7293 54.3507 69.8536L58.4444 68.937C58.811 68.8556 58.9739 68.5704 58.9739 68.1631C58.9332 66.2283 57.9556 64.4767 55.7764 64.884C53.6786 65.2914 52.538 67.491 52.5788 69.548C52.6195 71.7477 53.923 73.377 55.9393 72.8882L55.8986 72.8678ZM55.756 66.4523C56.5096 66.2894 57.1613 66.8189 57.2428 67.6539L54.2896 68.2853C54.3507 67.3892 54.982 66.6152 55.756 66.4523ZM52.8435 64.1101V63.662C52.8435 63.4787 52.9454 63.2751 53.1287 63.214C53.2916 63.1529 58.1185 61.7068 58.1185 61.7068C58.3426 61.6254 58.5259 61.8494 58.5259 62.1142V62.8677C58.5462 63.1529 58.3629 63.3973 58.1593 63.438L53.149 64.3952C52.9861 64.4156 52.8639 64.2934 52.8639 64.1101H52.8435ZM46.041 68.2446V67.5725C46.0206 67.3281 46.1836 67.0837 46.3872 67.0429L46.7742 66.9615L46.7131 64.5174C46.7131 64.1712 46.9168 63.8453 47.1816 63.7842L47.9148 63.6417C48.1999 63.5806 48.4239 63.825 48.4239 64.1712L48.485 66.5949L49.6052 66.3505C49.7885 66.3097 49.9514 66.4727 49.9718 66.7171V67.3688C49.9718 67.6132 49.8292 67.8372 49.6459 67.8983L48.5258 68.1427L48.6072 71.7884C48.6072 72.5012 48.9738 72.8882 49.5645 72.7456H49.6663C49.87 72.6642 50.0533 72.8271 50.0533 73.0919V73.8047C50.0533 74.0695 49.9107 74.3343 49.707 74.375L49.0349 74.5583C47.7518 74.9045 46.9168 73.8862 46.876 72.5012L46.7946 68.5297L46.4076 68.6112C46.2039 68.6519 46.041 68.489 46.041 68.2446Z" fill="white"/>
</g>
<defs>
<clipPath id="clip0_2663_1529">
<rect width="167.945" height="103.973" fill="white" transform="translate(16 48)"/>
</clipPath>
</defs>
</svg>
